<mxfile host="app.diagrams.net" modified="2023-04-26T03:17:14.495Z" agent="Mozilla/5.0 (Macintosh; Intel Mac OS X 10_15_7) AppleWebKit/537.36 (KHTML, like Gecko) Chrome/112.0.0.0 Safari/537.36" version="21.1.2" etag="PGFEElEfCV9jsQHw8ft5" type="github">
  <diagram name="第 1 页" id="JmM06-JYew4kEiA1pXZ7">
    <mxGraphModel>
      <root>
        <mxCell id="0" />
        <mxCell id="1" parent="0" />
      </root>
    </mxGraphModel>
  </diagram>
</mxfile>
